<svg xmlns="http://www.w3.org/2000/svg" xmlns:xlink="http://www.w3.org/1999/xlink" id="icons" x="0px" y="0px" width="64px" height="64px" viewBox="0 0 64 64" xml:space="preserve">
<g>
	<g>
		<g>
			<polygon fill="#545C66" points="54,37 55.5,39.25 54,41.5 51,41.5    "></polygon>
		</g>
	</g>
	<g>
		<g>
			<path fill="#656D78" d="M63,29.5v2H47v-2c0-1.1,0.9-2,2-2h2h3.99H61C62.1,27.5,63,28.4,63,29.5z"></path>
		</g>
	</g>
	<g>
		<g>
			<polygon fill="#5D9CEC" points="63,31.5 63,41.5 62,41.5 58,35.5 55.5,39.25 54,37 51,41.5 47,41.5 47,39.51 47,35.5 47,31.5         "></polygon>
		</g>
	</g>
	<g>
		<g>
			<path fill="#656D78" d="M63,53.5v2c0,1.1-0.9,2-2,2H49c-1.1,0-2-0.9-2-2v-2H63z"></path>
		</g>
	</g>
	<g>
		<g>
			<polygon fill="#E6E9ED" points="63,41.5 63,53.5 47,53.5 47,47.5 47,43.5 47,41.5 51,41.5 54,41.5 62,41.5    "></polygon>
		</g>
	</g>
	<g>
		<g>
			<polygon fill="#656D78" points="58,35.5 62,41.5 54,41.5 55.5,39.25    "></polygon>
		</g>
	</g>
	<g>
		<g>
			<path fill="#656D78" d="M20,54.5h16h2c1.1,0,2,0.89,2,2v1H16v-1c0-1.11,0.89-2,2-2H20z"></path>
		</g>
	</g>
	<g>
		<g>
			<polygon fill="#545C66" points="34,47.5 36,54.5 20,54.5 22,47.5    "></polygon>
		</g>
	</g>
	<g>
		<g>
			<path fill="#656D78" d="M1.05,43.5H47v4h-0.01H34H22H3c-1.1,0-2-0.9-2-2v-2H1.05z"></path>
		</g>
	</g>
	<g>
		<g>
			<polygon fill="#656D78" points="35.99,16.5 44.99,27.5 26.99,27.5 30.5,23.21    "></polygon>
		</g>
	</g>
	<g>
		<g>
			<polygon fill="#545C66" points="27.49,19.5 30.5,23.21 26.99,27.5 20.99,27.5    "></polygon>
		</g>
	</g>
	<g>
		<g>
			<path fill="#FFCE54" d="M15,14.5c1.11,0,2,0.9,2,2c0,1.11-0.89,2-2,2c-1.1,0-2-0.89-2-2C13,15.4,13.9,14.5,15,14.5z"></path>
		</g>
	</g>
	<g>
		<g>
			<path fill="#5D9CEC" d="M51,10.5v17h-2h-4.01l-9-11l-5.49,6.71l-3.01-3.71l-6.5,8H5v-17H51z M17,16.5c0-1.1-0.89-2-2-2     c-1.1,0-2,0.9-2,2c0,1.11,0.9,2,2,2C16.11,18.5,17,17.61,17,16.5z"></path>
		</g>
	</g>
	<g>
		<g>
			<path fill="#E6E9ED" d="M47,43.5H1.05H1v-35c0-1.1,0.9-2,2-2h49.99c1.1,0,2,0.9,2,2v18.98v0.02H51v-17H5v17h15.99h6h18H49     c-1.1,0-2,0.9-2,2v2v4v4.01v1.99V43.5z"></path>
		</g>
	</g>
</g>
<g>
	<g>
		<g>
			<path d="M28.026,46.498c-0.553,0-1.005-0.447-1.005-1s0.442-1,0.994-1h0.011c0.552,0,1,0.447,1,1S28.578,46.498,28.026,46.498z"></path>
		</g>
	</g>
	<g>
		<g>
			<path d="M47.002,44.498H1.047c-0.553,0-1-0.447-1-1s0.447-1,1-1h45.955c0.553,0,1,0.447,1,1S47.555,44.498,47.002,44.498z"></path>
		</g>
	</g>
	<g>
		<g>
			<path d="M46.986,48.498H3c-1.654,0-3-1.346-3-3V8.502c0-1.654,1.346-3,3-3h49.992c1.654,0,3,1.346,3,3V27.48c0,0.553-0.447,1-1,1     s-1-0.447-1-1V8.502c0-0.552-0.448-1-1-1H3c-0.552,0-1,0.448-1,1v36.996c0,0.552,0.448,1,1,1h43.986c0.553,0,1,0.447,1,1     S47.539,48.498,46.986,48.498z"></path>
		</g>
	</g>
	<g>
		<g>
			<path d="M19.999,55.496c-0.092,0-0.184-0.013-0.275-0.038c-0.531-0.152-0.839-0.706-0.688-1.236l2-6.998     c0.152-0.532,0.711-0.832,1.236-0.688c0.531,0.152,0.839,0.706,0.688,1.236l-2,6.998C20.834,55.21,20.434,55.496,19.999,55.496z"></path>
		</g>
	</g>
	<g>
		<g>
			<path d="M35.995,55.496c-0.435,0-0.835-0.286-0.961-0.726l-2-6.998c-0.151-0.53,0.156-1.084,0.688-1.236     c0.527-0.145,1.084,0.155,1.236,0.688l2,6.998c0.151,0.53-0.156,1.084-0.688,1.236C36.179,55.483,36.087,55.496,35.995,55.496z"></path>
		</g>
	</g>
	<g>
		<g>
			<path d="M15.998,57.496c-0.553,0-1-0.447-1-1c0-1.654,1.346-3,3-3c0.553,0,1,0.447,1,1s-0.447,1-1,1c-0.552,0-1,0.448-1,1     C16.998,57.049,16.551,57.496,15.998,57.496z"></path>
		</g>
	</g>
	<g>
		<g>
			<path d="M39.996,57.496c-0.553,0-1-0.447-1-1c0-0.552-0.448-1-1-1c-0.553,0-1-0.447-1-1s0.447-1,1-1c1.654,0,3,1.346,3,3     C40.996,57.049,40.549,57.496,39.996,57.496z"></path>
		</g>
	</g>
	<g>
		<g>
			<path d="M37.996,55.496H17.998c-0.553,0-1-0.447-1-1s0.447-1,1-1h19.998c0.553,0,1,0.447,1,1S38.549,55.496,37.996,55.496z"></path>
		</g>
	</g>
	<g>
		<g>
			<path d="M15.998,58.496c-0.553,0-1-0.447-1-1v-1c0-0.553,0.447-1,1-1s1,0.447,1,1v1C16.998,58.049,16.551,58.496,15.998,58.496z"></path>
		</g>
	</g>
	<g>
		<g>
			<path d="M39.996,58.496H15.998c-0.553,0-1-0.447-1-1s0.447-1,1-1h23.998c0.553,0,1,0.447,1,1S40.549,58.496,39.996,58.496z"></path>
		</g>
	</g>
	<g>
		<g>
			<path d="M39.996,58.496c-0.553,0-1-0.447-1-1v-1c0-0.553,0.447-1,1-1s1,0.447,1,1v1C40.996,58.049,40.549,58.496,39.996,58.496z"></path>
		</g>
	</g>
	<g>
		<g>
			<path d="M47,32.498H5c-0.553,0-1-0.447-1-1s0.447-1,1-1h42c0.553,0,1,0.447,1,1S47.553,32.498,47,32.498z"></path>
		</g>
	</g>
	<g>
		<g>
			<path d="M47,36.502H5c-0.553,0-1-0.447-1-1s0.447-1,1-1h42c0.553,0,1,0.447,1,1S47.553,36.502,47,36.502z"></path>
		</g>
	</g>
	<g>
		<g>
			<path d="M47,40.506H5c-0.553,0-1-0.447-1-1s0.447-1,1-1h42c0.553,0,1,0.447,1,1S47.553,40.506,47,40.506z"></path>
		</g>
	</g>
	<g>
		<g>
			<path d="M61,58.498H49.002c-1.654,0-3-1.346-3-3V29.496c0-1.654,1.346-3,3-3H61c1.654,0,3,1.346,3,3v26.002     C64,57.152,62.654,58.498,61,58.498z M49.002,28.496c-0.552,0-1,0.448-1,1v26.002c0,0.552,0.448,1,1,1H61c0.552,0,1-0.448,1-1     V29.496c0-0.552-0.448-1-1-1H49.002z"></path>
		</g>
	</g>
	<g>
		<g>
			<path d="M63,54.498H47.002c-0.553,0-1-0.447-1-1s0.447-1,1-1H63c0.553,0,1,0.447,1,1S63.553,54.498,63,54.498z"></path>
		</g>
	</g>
	<g>
		<g>
			<path d="M50.998,28.496H5c-0.553,0-1-0.447-1-1V10.498c0-0.553,0.447-1,1-1h45.998c0.553,0,1,0.447,1,1v16.998     C51.998,28.049,51.551,28.496,50.998,28.496z M6,26.496h43.998V11.498H6V26.496z"></path>
		</g>
	</g>
	<g>
		<g>
			<path d="M44.993,28.496c-0.29,0-0.577-0.125-0.774-0.367l-8.998-10.996c-0.351-0.427-0.287-1.057,0.141-1.406     c0.427-0.352,1.058-0.287,1.406,0.141l8.998,10.996c0.351,0.427,0.287,1.057-0.141,1.406     C45.439,28.422,45.216,28.496,44.993,28.496z"></path>
		</g>
	</g>
	<g>
		<g>
			<path d="M26.993,28.496c-0.223,0-0.446-0.074-0.632-0.227c-0.428-0.35-0.491-0.979-0.141-1.406l8.998-10.996     c0.349-0.428,0.979-0.491,1.406-0.141c0.428,0.35,0.491,0.979,0.141,1.406l-8.998,10.996     C27.57,28.371,27.283,28.496,26.993,28.496z"></path>
		</g>
	</g>
	<g>
		<g>
			<path d="M30.505,24.207c-0.291,0-0.579-0.126-0.777-0.369l-3.012-3.707c-0.348-0.429-0.283-1.059,0.146-1.407     c0.43-0.349,1.058-0.282,1.407,0.146l3.012,3.707c0.348,0.429,0.283,1.059-0.146,1.407     C30.949,24.134,30.726,24.207,30.505,24.207z"></path>
		</g>
	</g>
	<g>
		<g>
			<path d="M20.991,28.5c-0.222,0-0.444-0.073-0.63-0.224c-0.429-0.349-0.493-0.979-0.146-1.407l6.5-8     c0.35-0.429,0.979-0.493,1.407-0.146c0.429,0.349,0.493,0.979,0.146,1.407l-6.5,8C21.57,28.374,21.282,28.5,20.991,28.5z"></path>
		</g>
	</g>
	<g>
		<g>
			<path d="M15.004,19.498c-1.654,0-3-1.346-3-3s1.346-3,3-3s3,1.346,3,3S16.658,19.498,15.004,19.498z M15.004,15.498     c-0.552,0-1,0.448-1,1s0.448,1,1,1s1-0.448,1-1S15.556,15.498,15.004,15.498z"></path>
		</g>
	</g>
	<g>
		<g>
			<path d="M63,42.496H47.002c-0.553,0-1-0.447-1-1s0.447-1,1-1H63c0.553,0,1,0.447,1,1S63.553,42.496,63,42.496z"></path>
		</g>
	</g>
	<g>
		<g>
			<path d="M61.999,42.496c-0.323,0-0.641-0.156-0.833-0.445l-4-6.002c-0.307-0.46-0.182-1.08,0.277-1.387     c0.46-0.306,1.081-0.183,1.387,0.277l4,6.002c0.307,0.46,0.182,1.08-0.277,1.387C62.382,42.441,62.189,42.496,61.999,42.496z"></path>
		</g>
	</g>
	<g>
		<g>
			<path d="M53.997,42.496c-0.19,0-0.383-0.055-0.554-0.168c-0.459-0.307-0.584-0.927-0.277-1.387l4-6.002     c0.306-0.46,0.925-0.583,1.387-0.277c0.459,0.307,0.584,0.927,0.277,1.387l-4,6.002C54.638,42.34,54.32,42.496,53.997,42.496z"></path>
		</g>
	</g>
	<g>
		<g>
			<path d="M55.501,40.246c-0.323,0-0.641-0.156-0.833-0.445l-1.5-2.25c-0.307-0.46-0.183-1.08,0.277-1.387s1.08-0.183,1.387,0.277     l1.5,2.25c0.307,0.46,0.183,1.08-0.277,1.387C55.884,40.191,55.691,40.246,55.501,40.246z"></path>
		</g>
	</g>
	<g>
		<g>
			<path d="M50.999,42.496c-0.19,0-0.383-0.055-0.554-0.168c-0.46-0.307-0.584-0.927-0.277-1.387l3-4.5     c0.305-0.46,0.926-0.584,1.387-0.277c0.46,0.307,0.584,0.927,0.277,1.387l-3,4.5C51.64,42.34,51.322,42.496,50.999,42.496z"></path>
		</g>
	</g>
	<g>
		<g>
			<path d="M50.03,35.494c-0.553,0-1.005-0.447-1.005-1s0.442-1,0.994-1h0.011c0.552,0,1,0.447,1,1S50.582,35.494,50.03,35.494z"></path>
		</g>
	</g>
	<g>
		<g>
			<path d="M55.028,56.498c-0.553,0-1.005-0.447-1.005-1s0.442-1,0.994-1h0.011c0.552,0,1,0.447,1,1S55.58,56.498,55.028,56.498z"></path>
		</g>
	</g>
	<g>
		<g>
			<path d="M59.998,48.498h-10c-0.553,0-1-0.447-1-1s0.447-1,1-1h10c0.553,0,1,0.447,1,1S60.551,48.498,59.998,48.498z"></path>
		</g>
	</g>
	<g>
		<g>
			<path d="M59.998,45.498h-10c-0.553,0-1-0.447-1-1s0.447-1,1-1h10c0.553,0,1,0.447,1,1S60.551,45.498,59.998,45.498z"></path>
		</g>
	</g>
	<g>
		<g>
			<path d="M59.998,51.498h-10c-0.553,0-1-0.447-1-1s0.447-1,1-1h10c0.553,0,1,0.447,1,1S60.551,51.498,59.998,51.498z"></path>
		</g>
	</g>
	<g>
		<g>
			<path d="M63,32.498H47c-0.553,0-1-0.447-1-1s0.447-1,1-1h16c0.553,0,1,0.447,1,1S63.553,32.498,63,32.498z"></path>
		</g>
	</g>
</g>
</svg>